<svg xmlns="http://www.w3.org/2000/svg" viewBox="0 0 512 512">
  <defs>
    <radialGradient id="fond" cx="50%" cy="32%" r="80%">
      <stop offset="0%" stop-color="#722f37"/>
      <stop offset="100%" stop-color="#120a0d"/>
    </radialGradient>
    <linearGradient id="vin" x1="0" y1="0" x2="0" y2="1">
      <stop offset="0%" stop-color="#a03d4b"/>
      <stop offset="100%" stop-color="#5e2029"/>
    </linearGradient>
  </defs>
  <rect width="512" height="512" rx="110" fill="url(#fond)"/>
  <path d="M256 88c-90 0-150 52-150 138v198h300V226c0-86-60-138-150-138z" fill="none" stroke="#c9a227" stroke-width="10" opacity=".55"/>
  <g transform="translate(256 130)">
    <path d="M-62 0h124l-9 96a53 53 0 0 1-106 0z" fill="none" stroke="#f3ead8" stroke-width="13" stroke-linejoin="round"/>
    <path d="M-49 38c4 52 21 78 49 78s45-26 49-78z" fill="url(#vin)"/>
    <line x1="0" y1="152" x2="0" y2="236" stroke="#f3ead8" stroke-width="13" stroke-linecap="round"/>
    <line x1="-52" y1="248" x2="52" y2="248" stroke="#f3ead8" stroke-width="13" stroke-linecap="round"/>
  </g>
  <circle cx="365" cy="135" r="13" fill="#c9a227"/>
  <circle cx="398" cy="105" r="8" fill="#c9a227" opacity=".7"/>
</svg>
